<svg version="1.0" xmlns="http://www.w3.org/2000/svg"
 width="1920.000000pt" height="1281.000000pt" viewBox="0 0 1920.000000 1281.000000"
 preserveAspectRatio="xMidYMid meet">

<g transform="translate(0.000000,1281.000000) scale(0.100000,-0.100000)"
fill="#000000" stroke="none">
<path d="M0 12510 c0 -165 2 -300 3 -300 2 0 24 11 48 25 24 14 51 28 59 32 8
4 24 15 34 25 11 10 24 18 28 18 5 0 27 12 51 27 23 15 71 43 107 64 36 20
110 62 165 94 55 31 136 76 180 99 104 55 245 134 320 180 l60 36 -527 0 -528
0 0 -300z"/>
<path d="M4084 12786 c0 -13 4 -22 7 -20 7 4 29 -41 29 -61 0 -8 7 -15 15 -15
8 0 17 -11 21 -25 3 -14 10 -22 15 -19 5 3 6 -2 3 -10 -3 -8 2 -19 13 -25 15
-7 19 -20 19 -53 -1 -24 4 -49 11 -56 7 -7 13 -38 13 -67 0 -30 5 -66 10 -80
9 -23 14 -26 40 -20 49 11 55 -6 10 -26 -23 -11 -50 -19 -59 -19 -10 0 -21 -3
-25 -7 -3 -4 -14 -8 -24 -10 -27 -5 -65 -11 -87 -12 -18 -2 -17 -3 5 -12 16
-7 32 -7 47 0 18 8 23 7 23 -3 0 -8 20 -17 53 -22 48 -8 53 -12 63 -43 7 -22
13 -29 17 -20 5 12 7 12 16 -1 8 -12 13 -11 29 8 24 27 42 28 42 2 0 -18 10
-24 31 -22 4 1 5 -7 2 -16 -3 -15 3 -18 44 -17 33 0 53 6 64 18 9 9 31 17 48
17 35 0 90 44 70 56 -8 5 -6 10 5 16 11 6 22 6 32 -2 12 -10 14 -8 14 14 0 15
11 38 24 51 l25 25 12 -35 c14 -38 32 -41 37 -7 3 21 9 22 88 22 83 0 84 0 84
25 0 14 5 25 10 25 6 0 10 -10 10 -22 0 -24 20 -63 20 -40 0 6 7 12 15 12 8 0
15 5 15 10 0 6 9 10 20 10 11 0 20 -4 20 -10 0 -5 9 -10 20 -10 11 0 20 -4 20
-10 0 -5 9 -10 20 -10 11 0 20 5 20 10 0 6 9 10 20 10 11 0 20 -4 20 -10 0 -5
9 -10 20 -10 11 0 20 5 20 10 0 6 40 10 100 10 60 0 100 4 100 10 0 17 161 13
174 -4 16 -21 66 -9 66 15 0 11 4 19 9 19 6 0 11 15 13 33 3 37 21 43 26 10 3
-22 8 -23 98 -23 l94 0 0 30 c0 20 5 30 15 30 8 0 15 -4 15 -10 0 -5 9 -10 20
-10 11 0 20 -6 20 -12 0 -9 4 -8 10 2 9 13 10 13 10 0 0 -12 2 -12 9 -2 6 10
11 5 20 -17 10 -23 16 -27 25 -18 9 8 10 15 2 23 -6 7 -14 10 -18 7 -5 -2 -8
1 -8 6 0 13 5 14 100 11 43 -1 78 -7 83 -13 5 -9 10 -8 17 3 9 13 11 13 19 0
8 -12 13 -11 29 8 24 27 32 28 32 2 0 -25 20 -27 20 -2 1 9 7 28 15 42 12 23
14 23 21 6 4 -11 2 -21 -7 -27 -11 -7 -12 -12 -2 -27 14 -23 20 -93 9 -110
-11 -19 2 -28 22 -16 12 8 22 8 35 0 13 -8 20 -8 25 0 8 13 62 25 110 24 22 0
32 4 32 15 0 8 6 15 14 15 7 0 17 10 21 23 4 14 8 18 12 9 3 -8 0 -19 -6 -25
-23 -23 -12 -37 21 -30 41 8 58 25 58 57 0 19 5 26 20 26 13 0 20 -7 20 -20 0
-11 6 -20 13 -20 7 0 19 -9 27 -20 11 -15 16 -16 23 -7 7 9 10 9 14 0 7 -18
23 -16 23 2 0 18 47 69 72 78 12 4 21 0 28 -13 9 -16 21 -20 68 -20 31 0 85 6
120 14 35 7 65 9 68 4 3 -4 18 -8 35 -8 19 0 29 -5 29 -15 0 -8 7 -15 15 -15
8 0 15 -4 15 -10 0 -5 11 -10 25 -10 14 0 25 -4 25 -10 0 -5 9 -10 20 -10 13
0 20 -7 20 -19 0 -15 11 -19 75 -24 41 -4 95 -4 120 0 33 4 45 2 45 -7 0 -9 7
-8 25 4 30 20 39 20 31 1 -4 -11 2 -15 24 -15 26 0 31 -5 40 -42 8 -28 14 -37
20 -28 5 8 26 13 54 13 25 -1 46 3 46 8 0 15 52 10 70 -6 12 -11 29 -13 62 -9
l45 6 18 79 c19 80 29 95 40 59 15 -47 95 -97 109 -67 5 9 7 9 12 0 7 -15 44
-17 44 -3 0 6 9 10 20 10 13 0 20 -7 20 -20 0 -11 7 -20 15 -20 8 0 15 -9 15
-20 0 -11 -7 -20 -15 -20 -19 0 -19 -27 -1 -46 24 -24 46 -17 46 14 0 16 8 34
20 42 22 16 26 53 10 95 -13 35 4 23 19 -14 12 -26 16 -28 52 -24 25 4 39 2
39 -6 0 -6 -15 -11 -34 -11 -19 0 -38 -4 -41 -10 -5 -8 8 -43 21 -59 4 -5 30
22 37 39 4 11 6 11 6 2 1 -7 8 -20 16 -28 13 -14 15 -13 15 5 0 14 6 21 20 21
28 0 29 56 0 65 -19 6 -19 7 3 29 l22 23 17 -31 c9 -17 17 -25 18 -18 0 27 20
10 20 -18 0 -23 4 -30 20 -30 13 0 20 7 20 20 0 13 7 20 20 20 13 0 20 -7 20
-20 0 -13 7 -20 20 -20 13 0 20 7 20 20 0 13 7 20 20 20 17 0 20 7 20 40 l0
40 64 0 c36 0 68 -4 71 -10 3 -5 24 -8 45 -6 26 3 39 0 37 -7 -1 -8 19 -13 56
-15 49 -3 62 0 77 18 13 15 25 19 44 14 16 -4 26 -2 26 5 0 6 7 11 15 11 8 0
15 5 15 10 0 6 -7 10 -15 10 -8 0 -15 -4 -15 -10 0 -5 -7 -10 -15 -10 -8 0
-15 5 -15 10 0 6 7 10 15 10 8 0 15 5 15 11 0 7 11 8 30 4 26 -6 30 -4 30 14
0 12 5 21 10 21 6 0 10 9 10 20 0 11 4 20 9 20 5 0 7 18 4 40 -4 26 -2 40 6
40 6 0 11 -13 11 -30 0 -16 5 -30 10 -30 6 0 10 12 10 28 0 15 5 34 10 42 7
11 10 7 10 -17 0 -23 5 -33 15 -33 8 0 15 -9 15 -20 0 -13 7 -20 20 -20 15 0
20 -7 20 -29 0 -29 1 -30 38 -24 39 6 68 23 39 23 -9 0 -17 7 -17 15 0 10 -10
15 -30 15 -27 0 -30 3 -30 30 0 17 5 30 11 30 6 0 8 9 4 20 -4 11 -2 20 4 20
6 0 11 -11 11 -25 0 -14 5 -32 12 -39 10 -10 16 -9 34 9 12 12 24 31 27 41 4
18 5 18 6 1 1 -21 24 -47 40 -47 6 0 11 -4 11 -9 0 -5 27 -11 60 -13 33 -1 60
1 60 5 0 5 12 8 28 7 41 -3 49 -1 32 10 -8 5 -31 10 -50 10 -44 0 -28 17 20
22 19 2 35 8 35 15 0 6 3 15 8 19 4 4 7 -8 7 -26 0 -19 7 -38 18 -46 20 -16
82 -19 82 -4 0 6 37 10 90 10 83 0 90 -1 90 -20 0 -11 4 -20 8 -20 4 0 14 9
22 20 15 21 40 27 40 10 0 -17 25 -6 33 14 11 27 31 5 22 -24 -6 -17 -12 -20
-36 -15 -27 6 -29 5 -29 -24 0 -21 5 -31 15 -31 8 0 15 7 15 15 0 8 7 15 15
15 8 0 15 5 15 10 0 6 9 10 20 10 13 0 20 7 20 20 0 11 5 20 10 20 6 0 10 16
10 36 0 33 18 64 37 64 5 0 16 -15 24 -32 16 -37 48 -48 71 -24 8 8 28 16 44
19 l29 4 -30 2 c-43 2 -53 12 -48 48 5 29 8 32 34 26 31 -6 59 14 59 41 0 10
9 16 26 16 29 0 54 -21 54 -44 0 -10 9 -16 24 -16 13 0 27 -6 29 -12 4 -10 6
-10 6 0 1 6 10 12 21 12 11 0 20 5 20 10 0 6 18 10 40 10 22 0 40 5 40 10 0 6
10 10 23 11 12 0 -7 7 -42 14 -70 16 -88 25 -48 25 20 0 27 5 27 20 0 13 7 20
20 20 13 0 20 7 20 20 0 13 7 20 20 20 11 0 20 5 20 10 0 6 -22 10 -49 10 -40
0 -50 -3 -54 -20 -6 -23 -37 -17 -37 6 0 20 -38 17 -42 -2 -2 -10 -15 -18 -30
-20 -22 -2 -28 2 -28 17 0 18 -8 19 -119 19 -73 0 -122 -4 -126 -10 -5 -8 -11
-8 -19 -1 -20 17 -3574 15 -3594 -1 -13 -10 -14 -10 -8 0 6 9 -64 12 -333 12
-283 0 -341 -2 -341 -14 0 -14 -50 -31 -82 -28 -10 1 -18 -5 -18 -14 0 -8 -4
-12 -10 -9 -5 3 -10 19 -10 36 0 27 -2 29 -40 29 -39 0 -40 -1 -40 -36 0 -19
-6 -42 -14 -50 -19 -18 -88 -15 -81 4 3 8 5 16 5 18 0 2 11 2 25 -2 15 -4 25
-2 25 5 0 6 -10 11 -22 11 -12 0 -37 5 -55 12 -26 9 -36 9 -45 0 -9 -9 -5 -12
20 -12 18 0 32 -4 32 -10 0 -15 -67 -12 -74 3 -5 10 -7 10 -12 0 -3 -7 -12
-13 -20 -13 -8 0 -14 -4 -14 -10 0 -5 14 -10 30 -10 17 0 30 -4 30 -10 0 -5
-7 -10 -15 -10 -8 0 -15 -7 -15 -15 0 -9 -10 -15 -26 -15 -14 0 -32 7 -40 15
-19 19 -53 19 -77 0 -11 -7 -25 -11 -33 -8 -8 3 -14 -1 -14 -11 0 -9 -4 -16
-10 -16 -5 0 -10 -11 -10 -25 0 -27 -14 -33 -27 -12 -18 30 -93 31 -93 1 0 -8
-4 -14 -10 -14 -5 0 -10 7 -10 15 0 8 -4 15 -10 15 -5 0 -10 -4 -10 -10 0 -5
-15 -10 -33 -10 -20 0 -44 -9 -57 -20 -17 -15 -32 -19 -52 -15 -26 6 -28 4
-28 -24 0 -17 -4 -31 -10 -31 -5 0 -10 -5 -10 -11 0 -11 19 -10 129 7 32 5 42
4 37 -4 -4 -7 -20 -12 -36 -12 -16 0 -32 -4 -35 -10 -3 -5 -24 -10 -46 -10
-21 0 -39 -4 -39 -9 0 -4 -19 -11 -42 -14 -24 -3 -63 -9 -88 -12 -37 -5 -42
-4 -26 6 15 9 16 13 5 20 -9 6 3 7 31 2 44 -6 44 -6 26 12 -14 14 -15 20 -6
23 7 3 19 -3 25 -11 7 -9 15 -14 18 -10 11 10 8 25 -3 18 -5 -3 -10 3 -10 14
0 22 -14 28 -25 11 -3 -5 -26 -10 -50 -10 -24 0 -47 5 -50 10 -3 6 -20 10 -36
10 -28 0 -29 -1 -15 -16 18 -18 21 -34 6 -34 -5 0 -10 5 -10 10 0 12 -46 3
-75 -16 -22 -14 -146 -27 -170 -18 -8 4 -15 15 -15 25 0 12 -7 19 -20 19 -11
0 -20 5 -20 10 0 6 -8 10 -17 10 -16 0 -57 30 -104 75 -9 8 -21 15 -27 15 -15
0 -34 36 -30 57 2 12 -4 18 -16 18 -11 0 -20 6 -22 13 -1 7 0 8 3 2 7 -14 20
-13 26 3 3 7 -5 13 -21 14 -15 0 -28 6 -30 12 -2 6 -8 11 -14 11 -6 0 -8 -7
-4 -15 3 -8 3 -15 0 -15 -3 0 -10 13 -15 30 -6 16 -15 27 -20 24 -5 -3 -6 2
-2 12 5 14 8 13 19 -7 l12 -24 -1 25 c-2 24 -5 25 -78 28 -76 2 -77 2 -75 -22z
m2551 4 c-16 -4 -46 -8 -65 -8 -28 -1 -31 1 -15 8 11 5 40 8 65 8 41 0 42 -1
15 -8z m3545 0 c0 -5 -4 -10 -10 -10 -5 0 -10 5 -10 10 0 6 5 10 10 10 6 0 10
-4 10 -10z m148 -11 c-2 -6 -8 -10 -13 -10 -5 0 -11 4 -13 10 -2 6 4 11 13 11
9 0 15 -5 13 -11z m-3843 -9 c4 -6 -7 -10 -27 -9 -31 1 -32 1 -8 9 14 4 26 8
27 9 1 1 5 -3 8 -9z m-79 -19 c-3 -5 -23 -11 -43 -14 -74 -11 -198 -39 -215
-48 -25 -13 -138 -12 -118 1 8 5 27 10 43 10 15 0 27 4 27 8 0 4 21 9 48 10
26 1 76 8 112 16 57 14 83 18 138 25 7 0 11 -3 8 -8z m4184 -41 c0 -16 -4 -30
-10 -30 -5 0 -10 14 -10 30 0 17 5 30 10 30 6 0 10 -13 10 -30z m39 -17 c0
-36 -3 -43 -9 -28 -12 28 -12 75 0 75 6 0 10 -21 9 -47z m-149 17 c0 -16 -7
-20 -30 -20 -23 0 -30 4 -30 20 0 16 7 20 30 20 23 0 30 -4 30 -20z m-4523 4
c-3 -3 -12 -4 -19 -1 -8 3 -5 6 6 6 11 1 17 -2 13 -5z m-1683 -40 c3 -8 2 -12
-4 -9 -6 3 -10 10 -10 16 0 14 7 11 14 -7z m1722 -3 c-3 -5 -23 -11 -43 -14
-140 -20 -138 -20 -126 -7 7 7 40 16 75 20 94 11 100 11 94 1z m4401 -13 c-3
-8 -6 -5 -6 6 -1 11 2 17 5 13 3 -3 4 -12 1 -19z m-27 -23 c0 -19 -4 -35 -10
-35 -11 0 -13 30 -4 54 10 25 14 19 14 -19z m-6052 -10 c-2 -15 -6 -21 -11
-16 -6 6 -7 17 -4 25 9 24 17 19 15 -9z m1482 5 c0 -5 -15 -10 -33 -10 -18 0
-37 -4 -43 -10 -5 -5 -45 -15 -89 -21 -44 -6 -87 -15 -97 -20 -9 -5 -35 -9
-57 -9 -23 0 -49 -4 -59 -9 -20 -11 -185 -41 -191 -35 -8 7 3 12 39 18 19 4
67 13 105 21 39 8 105 22 148 30 43 8 83 17 88 21 9 5 27 9 109 24 65 11 80
11 80 0z m3910 -5 c0 -8 -4 -15 -10 -15 -5 0 -10 7 -10 15 0 8 5 15 10 15 6 0
10 -7 10 -15z m145 -35 c4 -6 -10 -10 -34 -10 -23 0 -41 5 -41 10 0 6 15 10
34 10 19 0 38 -4 41 -10z m-662 -7 c-7 -2 -19 -2 -25 0 -7 3 -2 5 12 5 14 0
19 -2 13 -5z m237 -39 c0 -21 -4 -33 -10 -29 -5 3 -10 19 -10 36 0 16 5 29 10
29 6 0 10 -16 10 -36z m-5070 16 c0 -5 -2 -10 -4 -10 -3 0 -8 5 -11 10 -3 6
-1 10 4 10 6 0 11 -4 11 -10z m5514 -5 c4 -10 -1 -15 -14 -15 -11 0 -20 5 -20
11 0 5 5 7 10 4 6 -3 10 -1 10 4 0 16 7 13 14 -4z m304 -23 c-2 -8 -10 -16
-19 -17 -11 -2 -15 3 -12 14 5 21 35 24 31 3z m-5778 -42 c5 0 11 -8 14 -17 4
-11 -4 -7 -19 10 -14 15 -25 33 -24 40 0 7 5 2 11 -10 6 -13 14 -23 18 -23z
m-139 15 c5 4 6 -1 2 -10 -5 -13 -7 -14 -14 -3 -5 7 -8 18 -8 23 0 6 3 4 6 -3
2 -6 9 -10 14 -7z m2849 5 c0 -5 -4 -10 -10 -10 -5 0 -10 5 -10 10 0 6 5 10
10 10 6 0 10 -4 10 -10z m2790 0 c0 -5 -18 -10 -40 -10 -22 0 -40 5 -40 10 0
6 18 10 40 10 22 0 40 -4 40 -10z m-3643 -87 c-3 -10 -5 -2 -5 17 0 19 2 27 5
18 2 -10 2 -26 0 -35z m-1388 13 c-12 -10 -49 -16 -49 -7 0 5 10 11 23 13 22
4 34 1 26 -6z m1961 -11 c0 -14 -4 -25 -10 -25 -5 0 -10 11 -10 25 0 14 5 25
10 25 6 0 10 -11 10 -25z m-2041 -5 c-24 -14 -106 -25 -94 -12 10 11 43 19 85
20 20 1 22 0 9 -8z m-112 -26 c2 -5 -25 -10 -59 -11 -62 -2 -62 -1 -19 7 24 5
46 12 49 15 8 7 25 1 29 -11z m2608 -4 c4 -6 -5 -10 -19 -10 -14 0 -26 5 -26
10 0 6 9 10 19 10 11 0 23 -4 26 -10z m-1632 -7 c-7 -2 -19 -2 -25 0 -7 3 -2
5 12 5 14 0 19 -2 13 -5z m937 -13 c0 -11 -4 -20 -10 -20 -5 0 -10 9 -10 20 0
11 5 20 10 20 6 0 10 -9 10 -20z m2450 -1 c0 -5 -4 -9 -10 -9 -5 0 -10 7 -10
16 0 8 5 12 10 9 6 -3 10 -10 10 -16z m-1000 -5 c0 -2 -15 -4 -32 -3 -27 0
-29 2 -13 8 18 8 45 4 45 -5z m-1200 -14 c0 -11 -4 -20 -10 -20 -5 0 -10 6
-10 13 0 8 -4 7 -10 -3 -8 -12 -10 -11 -10 8 0 15 6 22 20 22 13 0 20 -7 20
-20z m910 10 c0 -5 -4 -10 -10 -10 -5 0 -10 5 -10 10 0 6 5 10 10 10 6 0 10
-4 10 -10z m-2800 -25 c0 -14 -4 -25 -10 -25 -5 0 -10 11 -10 25 0 14 5 25 10
25 6 0 10 -11 10 -25z m3124 -47 c-9 -15 -24 -8 -24 11 0 12 -7 20 -17 20 -40
1 -52 5 -46 14 3 5 19 7 35 5 16 -3 32 0 35 6 4 6 10 -3 14 -19 5 -15 6 -32 3
-37z m-3229 42 c3 -5 -1 -10 -9 -10 -9 0 -16 5 -16 10 0 6 4 10 9 10 6 0 13
-4 16 -10z m2898 -22 c23 -2 27 -7 27 -35 0 -18 -4 -33 -10 -33 -5 0 -10 9
-10 20 0 14 -7 20 -22 20 -13 0 -29 4 -37 9 -12 8 -12 11 0 24 8 8 17 11 20 6
3 -5 17 -10 32 -11z m67 -43 c0 -14 -4 -25 -10 -25 -5 0 -10 11 -10 25 0 14 5
25 10 25 6 0 10 -11 10 -25z m180 5 c0 -11 -4 -20 -10 -20 -5 0 -10 9 -10 20
0 11 5 20 10 20 6 0 10 -9 10 -20z m-3670 -40 c0 -5 -9 -10 -21 -10 -11 0 -17
5 -14 10 3 6 13 10 21 10 8 0 14 -4 14 -10z m4160 -50 c0 -5 -4 -10 -10 -10
-5 0 -10 5 -10 10 0 6 5 10 10 10 6 0 10 -4 10 -10z m-4000 -30 c0 -5 -9 -10
-20 -10 -11 0 -20 5 -20 10 0 6 9 10 20 10 11 0 20 -4 20 -10z"/>
<path d="M10840 12796 c0 -38 12 -46 66 -46 47 0 54 2 54 20 0 11 5 20 10 20
6 0 10 5 10 10 0 6 -30 10 -70 10 -54 0 -70 -3 -70 -14z"/>
<path d="M11080 12800 c0 -5 9 -10 20 -10 11 0 20 5 20 10 0 6 -9 10 -20 10
-11 0 -20 -4 -20 -10z"/>
<path d="M11560 12799 c0 -5 5 -7 10 -4 6 3 10 8 10 11 0 2 -4 4 -10 4 -5 0
-10 -5 -10 -11z"/>
<path d="M5080 12610 c0 -5 5 -10 11 -10 5 0 7 5 4 10 -3 6 -8 10 -11 10 -2 0
-4 -4 -4 -10z"/>
<path d="M4985 12550 c4 -6 11 -8 16 -5 5 4 9 -8 9 -24 0 -17 5 -31 10 -31 6
0 10 16 10 35 0 31 -3 35 -26 35 -14 0 -23 -4 -19 -10z"/>
<path d="M10310 12510 c0 -5 7 -10 15 -10 8 0 15 5 15 10 0 6 -7 10 -15 10 -8
0 -15 -4 -15 -10z"/>
<path d="M10345 12490 c-3 -5 3 -10 15 -10 12 0 18 5 15 10 -3 6 -10 10 -15
10 -5 0 -12 -4 -15 -10z"/>
<path d="M9595 12449 c-4 -6 -5 -13 -2 -16 7 -7 27 6 27 18 0 12 -17 12 -25
-2z"/>
<path d="M9750 12450 c-11 -7 -3 -10 30 -10 33 0 41 3 30 10 -8 5 -22 10 -30
10 -8 0 -22 -5 -30 -10z"/>
<path d="M9650 12408 c0 -13 5 -30 10 -38 7 -11 10 -7 10 17 0 17 -4 35 -10
38 -6 3 -10 -4 -10 -17z"/>
<path d="M9753 12413 c9 -2 25 -2 35 0 9 3 1 5 -18 5 -19 0 -27 -2 -17 -5z"/>
<path d="M9475 12370 c3 -5 12 -10 20 -10 8 0 17 5 20 10 4 6 -5 10 -20 10
-15 0 -24 -4 -20 -10z"/>
<path d="M6910 12310 c0 -29 4 -40 15 -40 11 0 15 -11 16 -37 0 -30 2 -33 8
-18 5 11 4 30 0 43 -5 13 -9 39 -9 58 0 24 -5 34 -15 34 -11 0 -15 -11 -15
-40z"/>
<path d="M7189 12341 c12 -8 51 -4 51 5 0 2 -15 4 -32 4 -23 0 -29 -3 -19 -9z"/>
<path d="M9263 12330 c-30 -12 -29 -23 4 -41 20 -11 27 -11 30 -1 3 6 11 12
19 12 8 0 14 5 14 10 0 6 -7 10 -15 10 -8 0 -15 5 -15 10 0 12 -7 12 -37 0z
m37 -20 c0 -5 -7 -10 -15 -10 -8 0 -15 5 -15 10 0 6 7 10 15 10 8 0 15 -4 15
-10z"/>
<path d="M4072 12319 c2 -7 10 -15 17 -17 8 -3 12 1 9 9 -2 7 -10 15 -17 17
-8 3 -12 -1 -9 -9z"/>
<path d="M4128 12313 c6 -2 18 -2 25 0 6 3 1 5 -13 5 -14 0 -19 -2 -12 -5z"/>
<path d="M3960 12295 c0 -9 6 -12 15 -9 8 4 15 7 15 9 0 2 -7 5 -15 9 -9 3
-15 0 -15 -9z"/>
<path d="M9335 12274 c9 -9 19 -13 23 -10 3 4 0 11 -8 16 -24 15 -33 11 -15
-6z"/>
<path d="M9432 12270 c0 -14 2 -19 5 -12 2 6 2 18 0 25 -3 6 -5 1 -5 -13z"/>
<path d="M7008 12273 c12 -2 32 -2 45 0 12 2 2 4 -23 4 -25 0 -35 -2 -22 -4z"/>
<path d="M9470 12268 c0 -7 4 -19 9 -27 11 -17 23 1 15 23 -7 19 -24 21 -24 4z"/>
<path d="M7177 12263 c-11 -10 -8 -63 3 -63 6 0 10 16 10 35 0 36 -2 40 -13
28z"/>
<path d="M4820 12245 c0 -8 9 -15 20 -15 13 0 18 5 14 15 -4 8 -12 15 -20 15
-8 0 -14 -7 -14 -15z"/>
<path d="M6892 12235 c0 -16 2 -22 5 -12 2 9 2 23 0 30 -3 6 -5 -1 -5 -18z"/>
<path d="M6915 12250 c-3 -5 -1 -18 4 -27 9 -16 10 -14 11 10 0 28 -5 34 -15
17z"/>
<path d="M7010 12250 c0 -5 7 -10 15 -10 8 0 15 5 15 10 0 6 -7 10 -15 10 -8
0 -15 -4 -15 -10z"/>
<path d="M9043 12247 c9 -8 16 -21 14 -28 -2 -8 -2 -11 0 -6 3 4 11 7 19 7 20
0 17 16 -3 24 -10 3 -25 9 -33 12 -10 3 -9 1 3 -9z"/>
<path d="M9230 12244 c0 -14 3 -14 15 -4 8 7 15 14 15 16 0 2 -7 4 -15 4 -8 0
-15 -7 -15 -16z"/>
<path d="M5390 12229 c0 -5 5 -7 10 -4 6 3 10 8 10 11 0 2 -4 4 -10 4 -5 0
-10 -5 -10 -11z"/>
<path d="M6970 12230 c0 -5 7 -10 15 -10 8 0 15 5 15 10 0 6 -7 10 -15 10 -8
0 -15 -4 -15 -10z"/>
<path d="M9517 12233 c-12 -12 -7 -22 8 -17 8 4 15 10 15 15 0 11 -14 12 -23
2z"/>
<path d="M4785 12220 c3 -5 11 -10 16 -10 6 0 7 5 4 10 -3 6 -11 10 -16 10 -6
0 -7 -4 -4 -10z"/>
<path d="M7513 12223 c15 -2 37 -2 50 0 12 2 0 4 -28 4 -27 0 -38 -2 -22 -4z"/>
<path d="M7664 12205 c7 -35 15 -43 27 -25 13 21 7 44 -14 48 -14 3 -17 -2
-13 -23z"/>
<path d="M8835 12210 c-4 -6 9 -10 32 -10 28 0 34 3 23 10 -20 13 -47 13 -55
0z"/>
<path d="M6530 12180 c0 -5 5 -10 10 -10 6 0 10 5 10 10 0 6 -4 10 -10 10 -5
0 -10 -4 -10 -10z"/>
<path d="M8082 12174 c-8 -9 -11 -26 -6 -49 6 -33 9 -35 45 -35 33 0 39 3 39
20 0 13 -12 28 -30 38 -16 9 -31 22 -32 29 -2 7 -7 7 -16 -3z"/>
<path d="M8850 12170 c0 -5 5 -10 10 -10 6 0 10 5 10 10 0 6 -4 10 -10 10 -5
0 -10 -4 -10 -10z"/>
<path d="M8601 12144 c-11 -24 -15 -26 -56 -19 -29 4 -45 3 -45 -4 0 -7 33
-11 90 -11 l90 0 0 30 c0 27 -3 30 -33 30 -27 0 -36 -6 -46 -26z"/>
<path d="M8720 12140 c0 -23 4 -30 20 -30 16 0 20 7 20 30 0 23 -4 30 -20 30
-16 0 -20 -7 -20 -30z"/>
<path d="M7968 12143 c12 -2 32 -2 45 0 12 2 2 4 -23 4 -25 0 -35 -2 -22 -4z"/>
<path d="M9235 12129 c-4 -6 -5 -12 -2 -15 2 -3 7 2 10 11 7 17 1 20 -8 4z"/>
<path d="M8371 12034 c0 -11 3 -14 6 -6 3 7 2 16 -1 19 -3 4 -6 -2 -5 -13z"/>
<path d="M14148 12023 c7 -3 16 -2 19 1 4 3 -2 6 -13 5 -11 0 -14 -3 -6 -6z"/>
<path d="M14045 12012 c-47 -3 -259 -37 -360 -57 -38 -8 -142 -28 -230 -45
-263 -50 -462 -93 -790 -170 -49 -12 -128 -30 -175 -40 -47 -10 -104 -25 -127
-34 -23 -8 -93 -26 -155 -40 -106 -24 -138 -33 -278 -73 -30 -8 -71 -19 -90
-22 -19 -4 -51 -13 -70 -19 -19 -6 -105 -30 -190 -52 -85 -22 -163 -45 -172
-50 -10 -6 -23 -10 -30 -10 -22 0 -483 -145 -510 -160 -10 -6 -26 -10 -35 -10
-16 0 -82 -21 -128 -41 -11 -4 -58 -20 -105 -35 -47 -14 -107 -34 -135 -44
-27 -10 -90 -33 -140 -50 -160 -56 -259 -92 -295 -108 -19 -9 -44 -17 -55 -18
-11 -1 -74 -24 -140 -52 -66 -27 -167 -66 -225 -86 -110 -39 -195 -70 -245
-91 -16 -7 -66 -27 -110 -44 -143 -57 -209 -85 -313 -133 -46 -21 -86 -38 -88
-38 -2 0 -32 -13 -66 -29 -35 -16 -90 -41 -123 -56 -146 -67 -215 -99 -285
-132 -41 -20 -84 -39 -95 -44 -11 -5 -78 -36 -149 -69 -71 -33 -140 -63 -152
-66 -13 -3 -28 -12 -35 -20 -6 -8 -16 -14 -21 -14 -5 0 -65 -27 -132 -60 -68
-33 -126 -60 -129 -60 -4 0 -7 7 -7 16 0 8 -4 13 -10 9 -5 -3 -7 -12 -4 -20 4
-10 -50 -40 -193 -109 -109 -53 -205 -101 -213 -106 -8 -6 -24 -13 -35 -17
-26 -9 -466 -229 -575 -289 -153 -83 -404 -219 -443 -239 -236 -124 -336 -179
-622 -343 -44 -25 -89 -50 -100 -56 -42 -23 -172 -101 -220 -131 -57 -37 -122
-75 -180 -106 -22 -12 -61 -37 -88 -55 -26 -19 -49 -34 -52 -34 -6 0 -118 -71
-125 -79 -3 -3 -30 -19 -60 -35 -30 -16 -57 -32 -60 -36 -3 -4 -27 -19 -55
-35 -61 -33 -228 -137 -235 -146 -3 -3 -20 -14 -38 -23 -18 -10 -81 -48 -140
-85 -59 -37 -143 -90 -187 -116 -44 -27 -82 -51 -85 -55 -3 -4 -25 -18 -50
-30 -24 -12 -56 -31 -70 -40 -14 -10 -49 -32 -78 -50 -28 -19 -52 -37 -52 -42
0 -4 -3 -7 -7 -6 -13 3 -71 -31 -133 -78 -32 -24 -63 -44 -68 -44 -6 0 -14 -5
-17 -10 -6 -9 26 -9 75 -1 3 1 -2 6 -10 11 -9 6 -10 10 -3 10 6 0 19 3 29 7
12 4 15 3 10 -5 -12 -19 27 -1 42 20 7 10 20 18 28 18 8 0 14 5 14 10 0 6 18
17 40 26 22 9 40 20 40 25 0 5 5 9 10 9 6 0 23 8 38 19 72 50 202 131 210 131
5 0 15 7 22 15 7 9 43 32 79 52 36 20 116 69 176 108 61 40 120 76 133 79 12
4 22 12 22 17 0 5 5 9 11 9 12 0 100 59 111 75 4 6 8 7 8 3 0 -8 67 33 172
103 32 22 60 39 63 39 4 0 36 20 73 44 37 24 85 53 107 65 95 52 158 89 174
103 10 9 41 28 67 43 27 16 76 45 109 65 33 20 67 40 75 43 8 4 44 25 79 47
34 22 65 40 68 40 6 0 125 72 133 80 3 3 34 20 70 38 85 43 213 114 231 128 8
6 25 15 39 19 14 4 27 11 30 15 3 4 61 37 130 73 69 35 175 91 235 124 159 87
336 182 440 237 50 27 110 60 135 75 99 58 318 168 355 177 14 3 25 10 25 15
0 5 6 9 14 9 7 0 134 60 282 134 350 175 768 376 782 376 11 0 177 85 180 92
2 4 12 8 21 8 20 0 108 36 161 65 19 10 55 27 80 36 61 23 157 63 260 105 47
20 101 42 120 49 39 14 244 93 275 105 11 5 43 16 70 26 28 10 52 21 55 24 3
4 16 10 30 13 38 9 322 105 405 137 11 5 40 15 65 23 132 42 281 97 375 138
90 38 112 46 149 53 21 4 46 11 55 16 9 5 41 16 71 25 30 9 78 24 105 34 28
10 75 26 105 34 82 24 361 107 390 117 14 4 52 15 85 25 33 9 103 30 155 45
128 39 388 104 885 222 50 11 119 29 154 39 35 11 73 19 83 19 11 0 27 4 37 9
10 6 62 19 117 31 54 11 153 32 219 46 66 14 140 29 165 34 25 5 68 14 95 20
28 6 77 15 110 20 33 5 87 14 120 20 95 18 154 28 235 40 41 6 94 18 118 26
23 8 56 14 72 14 16 0 31 4 35 9 8 14 -4 17 -50 13z"/>
<path d="M8982 11965 c-11 -12 -10 -15 2 -15 22 0 46 11 46 21 0 14 -34 10
-48 -6z"/>
<path d="M9036 11955 c-3 -8 -18 -15 -33 -15 -26 -1 -27 -2 -10 -14 23 -18 54
-10 60 15 6 23 -9 35 -17 14z"/>
<path d="M8112 11935 c0 -16 2 -22 5 -12 2 9 2 23 0 30 -3 6 -5 -1 -5 -18z"/>
<path d="M8583 11749 c14 -8 22 -8 30 0 8 8 3 11 -18 11 -26 -1 -28 -2 -12
-11z"/>
<path d="M8516 11735 c-9 -9 -23 -15 -33 -13 -10 2 -19 -4 -21 -14 -5 -27 64
-25 78 2 6 11 18 20 28 20 15 0 15 2 2 10 -21 14 -36 12 -54 -5z"/>
<path d="M2 11670 c2 -42 2 -42 130 -127 71 -47 131 -90 134 -94 3 -5 12 -9
21 -9 11 0 9 5 -8 21 -23 20 -23 20 8 -1 18 -11 35 -25 38 -30 7 -11 48 -14
58 -4 15 16 -19 44 -182 153 -97 64 -182 121 -189 125 -10 6 -12 -2 -10 -34z
m168 -130 c8 -5 11 -10 5 -10 -5 0 -21 10 -35 21 -24 20 -5 13 30 -11z m51
-37 c13 -17 13 -17 -6 -3 -11 8 -22 16 -24 17 -2 2 0 3 6 3 6 0 17 -8 24 -17z"/>
<path d="M8305 11650 c-11 -4 -23 -6 -28 -3 -13 8 -47 -8 -47 -22 0 -8 -8 -19
-17 -25 -15 -9 -12 -10 16 -6 18 3 37 6 42 6 5 0 9 7 9 14 0 11 14 16 50 18
28 2 51 8 53 13 2 12 -50 16 -78 5z"/>
<path d="M8155 11580 c-3 -5 1 -10 9 -10 9 0 16 5 16 10 0 6 -4 10 -9 10 -6 0
-13 -4 -16 -10z"/>
<path d="M7994 11559 c-3 -6 -1 -16 5 -22 8 -8 11 -5 11 11 0 24 -5 28 -16 11z"/>
<path d="M8034 11539 c-8 -14 14 -29 33 -22 18 7 17 20 -3 27 -21 8 -22 8 -30
-5z"/>
<path d="M7987 10583 c-13 -12 -7 -25 8 -19 8 3 15 0 15 -6 0 -7 5 -6 15 2 8
7 15 16 15 21 0 10 -44 12 -53 2z"/>
<path d="M2110 10219 c-12 -8 -12 -12 -2 -16 6 -2 38 -24 70 -47 31 -23 136
-96 232 -161 96 -65 195 -136 219 -157 24 -21 47 -36 50 -32 3 3 -2 10 -12 15
-26 15 -20 30 7 17 20 -9 26 -21 32 -64 3 -30 11 -54 16 -54 6 0 7 11 4 25 -8
33 6 32 63 -4 41 -26 111 -50 111 -38 0 3 -22 19 -49 36 -26 17 -56 40 -66 51
-18 20 -17 20 23 20 23 0 42 5 42 10 0 6 9 10 19 10 28 0 37 21 15 33 -26 15
-117 9 -127 -9 -9 -16 -37 -19 -37 -3 0 5 -5 7 -10 4 -12 -7 -71 26 -180 100
-131 90 -385 261 -395 268 -6 3 -17 1 -25 -4z m630 -419 c0 -5 -7 -7 -15 -4
-8 4 -15 8 -15 10 0 2 7 4 15 4 8 0 15 -4 15 -10z"/>
<path d="M2960 9646 c0 -21 72 -68 84 -56 11 11 -8 29 -56 55 -25 14 -28 14
-28 1z"/>
<path d="M2660 9295 c-21 -26 18 -32 43 -6 l21 21 -26 0 c-14 0 -31 -7 -38
-15z"/>
<path d="M0 8981 c0 -6 2 -11 3 -11 2 0 208 -78 458 -174 389 -148 499 -192
542 -214 4 -2 7 3 7 11 0 10 -36 28 -102 52 -127 46 -747 283 -895 342 -7 3
-13 0 -13 -6z"/>
<path d="M350 8435 l-35 -14 40 6 c22 3 44 9 50 14 14 13 -14 10 -55 -6z"/>
<path d="M288 8413 c7 -3 16 -2 19 1 4 3 -2 6 -13 5 -11 0 -14 -3 -6 -6z"/>
<path d="M248 8403 c7 -3 16 -2 19 1 4 3 -2 6 -13 5 -11 0 -14 -3 -6 -6z"/>
<path d="M175 8385 c-22 -7 -31 -13 -20 -14 11 0 34 6 50 14 38 17 22 17 -30
0z"/>
<path d="M85 8360 c-13 -5 -14 -9 -5 -9 8 0 24 4 35 9 13 5 14 9 5 9 -8 0 -24
-4 -35 -9z"/>
<path d="M4940 8283 c0 -5 25 -24 55 -43 30 -19 55 -38 55 -42 0 -5 9 -8 20
-8 33 0 22 13 -49 58 -70 43 -81 48 -81 35z"/>
<path d="M4660 8113 c-23 -12 -21 -13 28 -13 29 0 51 4 48 9 -10 15 -50 17
-76 4z"/>
<path d="M3424 7519 l-19 -21 35 7 c43 9 48 14 30 25 -21 14 -25 13 -46 -11z"/>
<path d="M3400 7469 c0 -5 5 -7 10 -4 6 3 10 8 10 11 0 2 -4 4 -10 4 -5 0 -10
-5 -10 -11z"/>
<path d="M4250 7320 c8 -5 20 -10 25 -10 6 0 3 5 -5 10 -8 5 -19 10 -25 10 -5
0 -3 -5 5 -10z"/>
<path d="M50 7011 c23 -13 110 -23 110 -13 0 8 -70 22 -109 22 -14 -1 -14 -2
-1 -9z"/>
<path d="M3448 6983 c7 -3 16 -2 19 1 4 3 -2 6 -13 5 -11 0 -14 -3 -6 -6z"/>
<path d="M3408 6973 c7 -3 16 -2 19 1 4 3 -2 6 -13 5 -11 0 -14 -3 -6 -6z"/>
<path d="M3330 6954 l-35 -14 35 6 c40 7 76 24 50 23 -8 0 -31 -7 -50 -15z"/>
<path d="M3235 6930 c-13 -5 -14 -9 -5 -9 8 0 24 4 35 9 13 5 14 9 5 9 -8 0
-24 -4 -35 -9z"/>
<path d="M5805 6920 c-3 -6 1 -7 9 -4 18 7 21 14 7 14 -6 0 -13 -4 -16 -10z"/>
<path d="M3010 6870 c-18 -12 -2 -12 25 0 13 6 15 9 5 9 -8 0 -22 -4 -30 -9z"/>
<path d="M2523 6583 c9 -2 25 -2 35 0 9 3 1 5 -18 5 -19 0 -27 -2 -17 -5z"/>
<path d="M2605 6570 c17 -4 42 -11 57 -14 14 -3 41 -18 60 -33 l33 -28 -29 35
c-28 35 -67 49 -126 49 -23 -1 -22 -2 5 -9z"/>
<path d="M1910 6158 c0 -9 42 -17 160 -27 90 -8 110 -8 98 4 -9 9 -258 31
-258 23z"/>
<path d="M2973 6053 c15 -2 37 -2 50 0 12 2 0 4 -28 4 -27 0 -38 -2 -22 -4z"/>
<path d="M9333 5874 c-91 -15 -233 -62 -239 -79 -3 -7 -13 -12 -22 -10 -24 3
-88 -29 -222 -109 -157 -95 -287 -196 -252 -196 7 0 12 5 12 11 0 6 7 9 15 5
8 -3 15 -1 15 4 0 6 5 10 11 10 16 0 189 103 189 113 0 4 4 6 8 3 5 -3 29 6
53 19 25 13 62 26 82 29 20 3 53 8 72 11 21 4 35 12 35 20 0 9 16 16 45 21 25
3 45 11 45 16 0 5 4 6 10 3 5 -3 21 5 34 18 28 28 79 41 151 37 54 -2 86 -24
105 -74 6 -16 13 -146 16 -294 5 -253 13 -323 30 -279 6 17 -10 465 -22 600
-5 51 -13 76 -30 97 -30 35 -52 39 -141 24z m-223 -99 c0 -9 -9 -15 -22 -14
-17 1 -19 2 -5 6 9 2 17 9 17 14 0 5 2 9 5 9 3 0 5 -7 5 -15z"/>
<path d="M9767 5688 c-2 -35 -3 -174 -2 -310 2 -162 -1 -248 -7 -248 -6 0 -5
-6 2 -15 9 -10 11 -43 8 -112 -3 -54 -2 -111 1 -128 l7 -30 7 35 c23 123 28
261 18 458 -17 307 -23 407 -26 410 -2 2 -5 -25 -8 -60z"/>
<path d="M2040 5676 c0 -2 8 -10 18 -17 15 -13 16 -12 3 4 -13 16 -21 21 -21
13z"/>
<path d="M837 5663 c-12 -12 -7 -22 8 -17 8 4 15 10 15 15 0 11 -14 12 -23 2z"/>
<path d="M8895 5580 c-5 -9 113 -16 165 -11 13 2 13 1 0 -8 -8 -6 -10 -12 -5
-13 6 -1 -19 -4 -55 -7 l-65 -6 -6 -250 c-4 -137 -6 -251 -5 -252 1 -1 60 -5
133 -9 l131 -7 7 44 c4 24 6 49 5 54 -1 6 -1 30 0 55 2 35 3 40 9 21 8 -28 31
-41 31 -17 0 9 -5 16 -10 16 -7 0 -9 23 -6 60 3 43 0 63 -11 71 -11 10 -12 32
-7 111 l7 98 -62 0 c-76 0 -82 23 -8 28 74 5 55 18 -35 25 -121 10 -206 8
-213 -3z m196 -144 c15 9 10 -13 -6 -26 -13 -11 -15 -8 -14 16 0 16 3 23 6 16
2 -6 9 -10 14 -6z"/>
<path d="M2130 5577 c0 -2 15 -16 33 -33 l32 -29 -29 33 c-28 30 -36 37 -36
29z"/>
<path d="M9249 5520 c-5 -55 -4 -68 7 -58 3 3 4 30 2 59 l-3 54 -6 -55z"/>
<path d="M9619 5563 c-30 -7 -38 -47 -42 -213 -2 -91 -5 -169 -6 -175 -2 -5
-3 -63 -2 -127 l1 -118 46 0 c31 0 43 -4 38 -11 -4 -7 -22 -9 -45 -6 -35 5
-39 3 -39 -17 0 -21 3 -22 61 -18 45 3 64 1 70 -9 6 -9 8 2 7 32 0 25 2 50 5
56 4 6 9 131 12 279 3 148 8 279 10 291 3 12 0 25 -6 29 -13 8 -86 13 -110 7z
m67 -63 c27 0 34 -4 34 -19 0 -27 -20 -38 -32 -17 -11 20 -44 21 -51 2 -8 -21
-42 -12 -45 12 -3 21 19 34 46 26 8 -2 29 -4 48 -4z m-20 -90 c32 0 44 -4 44
-15 0 -12 -13 -15 -60 -15 -54 0 -60 2 -60 21 0 15 4 19 16 15 9 -3 36 -6 60
-6z m44 -80 c0 -5 -11 -10 -25 -10 -17 0 -25 -6 -26 -17 0 -11 -3 -13 -6 -5
-2 6 -18 12 -34 12 -19 0 -29 5 -29 15 0 12 13 15 60 15 33 0 60 -4 60 -10z
m-81 -126 c6 4 11 2 11 -3 0 -6 -11 -11 -25 -11 -24 0 -32 10 -18 23 4 4 10 2
14 -4 4 -6 12 -8 18 -5z m21 -39 c0 -8 -4 -15 -10 -15 -5 0 -10 7 -10 15 0 8
5 15 10 15 6 0 10 -7 10 -15z m60 0 c0 -8 -6 -15 -14 -15 -8 0 -16 7 -20 15
-4 10 1 15 14 15 11 0 20 -7 20 -15z m-5 -60 c0 -27 -3 -30 -30 -30 -25 -1
-31 -5 -33 -28 -3 -21 -9 -27 -26 -27 -19 0 -24 7 -29 37 -4 20 -3 41 1 47 4
6 7 14 8 19 1 4 2 9 3 13 0 3 24 4 53 2 50 -3 52 -4 53 -33z"/>
<path d="M9648 5103 c6 -2 18 -2 25 0 6 3 1 5 -13 5 -14 0 -19 -2 -12 -5z"/>
<path d="M2265 5428 c37 -43 70 -78 73 -78 6 0 -92 112 -119 135 -13 11 8 -15
46 -57z"/>
<path d="M9253 5413 c9 -2 25 -2 35 0 9 3 1 5 -18 5 -19 0 -27 -2 -17 -5z"/>
<path d="M9260 5390 c-23 -7 -23 -8 -3 -9 12 -1 25 4 28 9 3 6 5 10 3 9 -2 -1
-14 -5 -28 -9z"/>
<path d="M8466 5381 c-3 -5 -21 -16 -41 -25 -41 -20 -43 -25 -11 -55 l23 -22
-5 27 c-2 14 -1 29 4 33 15 10 47 51 41 51 -3 0 -8 -4 -11 -9z"/>
<path d="M8060 5250 c0 -10 59 -64 64 -59 3 3 -11 18 -30 35 -18 17 -34 28
-34 24z"/>
<path d="M7980 5186 c19 -19 39 -32 43 -29 7 4 -59 63 -71 63 -3 0 9 -15 28
-34z"/>
<path d="M9310 5189 c0 -5 5 -7 10 -4 6 3 10 8 10 11 0 2 -4 4 -10 4 -5 0 -10
-5 -10 -11z"/>
<path d="M8958 5013 c-50 -8 -29 -23 30 -23 33 0 93 -3 135 -6 55 -5 77 -4 77
5 0 7 -26 11 -79 11 -44 0 -83 5 -86 10 -6 10 -26 11 -77 3z m55 -10 c-7 -2
-19 -2 -25 0 -7 3 -2 5 12 5 14 0 19 -2 13 -5z"/>
<path d="M5460 4960 l-25 -8 28 -1 c15 -1 27 4 27 9 0 6 -1 10 -2 9 -2 -1 -14
-5 -28 -9z"/>
<path d="M9048 4963 c12 -2 30 -2 40 0 9 3 -1 5 -23 4 -22 0 -30 -2 -17 -4z"/>
<path d="M8933 4953 c9 -2 23 -2 30 0 6 3 -1 5 -18 5 -16 0 -22 -2 -12 -5z"/>
<path d="M8845 4910 c-3 -5 -1 -10 4 -10 6 0 11 5 11 10 0 6 -2 10 -4 10 -3 0
-8 -4 -11 -10z"/>
<path d="M200 4904 c0 -3 33 -43 74 -88 118 -130 205 -239 200 -248 -3 -4 4
-8 16 -8 12 0 20 4 18 8 -5 15 -293 340 -300 341 -5 1 -8 -2 -8 -5z"/>
<path d="M9590 4850 c0 -9 26 -12 85 -12 37 0 37 5 0 13 -55 11 -85 11 -85 -1z"/>
<path d="M4633 4843 c-18 -2 -33 -9 -33 -14 0 -6 18 -8 48 -3 26 4 53 7 60 7
6 0 12 4 12 9 0 8 -26 8 -87 1z"/>
<path d="M9632 4821 c-9 -5 -1 -10 26 -15 22 -3 43 -12 45 -18 3 -7 6 -3 6 9
1 16 -4 20 -18 16 -10 -3 -22 0 -25 6 -8 13 -16 14 -34 2z"/>
<path d="M6062 4781 c-9 -24 -8 -29 3 -25 8 3 11 13 8 21 -4 11 -2 14 5 9 7
-4 12 -3 12 3 0 24 -19 18 -28 -8z"/>
<path d="M9756 4794 c-3 -9 -2 -12 5 -9 6 4 8 -3 4 -22 -5 -21 -4 -24 4 -13
13 18 14 60 2 60 -5 0 -12 -7 -15 -16z"/>
<path d="M8930 4790 c0 -13 34 -30 59 -30 29 0 26 14 -4 28 -31 15 -55 15 -55
2z"/>
<path d="M4430 4770 c0 -14 88 -63 100 -55 14 8 3 25 -17 25 -8 0 -26 9 -40
20 -28 22 -43 25 -43 10z"/>
<path d="M9625 4761 c-12 -11 -3 -21 20 -21 15 0 25 6 25 14 0 13 -34 19 -45
7z"/>
<path d="M5542 4690 c-12 -28 -17 -48 -12 -45 4 3 10 0 12 -7 2 -6 14 10 26
35 29 62 27 74 -3 17 -27 -51 -33 -47 -10 7 8 20 14 38 12 40 -2 2 -14 -19
-25 -47z"/>
<path d="M9008 4733 c7 -3 16 -2 19 1 4 3 -2 6 -13 5 -11 0 -14 -3 -6 -6z"/>
<path d="M9460 4729 c0 -5 5 -7 10 -4 6 3 10 8 10 11 0 2 -4 4 -10 4 -5 0 -10
-5 -10 -11z"/>
<path d="M9610 4720 c0 -13 20 -13 40 0 12 8 9 10 -12 10 -16 0 -28 -4 -28
-10z"/>
<path d="M3320 4650 c-96 -15 -253 -37 -348 -50 -118 -16 -181 -29 -194 -40
-19 -15 -15 -16 68 -8 49 5 145 20 214 33 69 14 158 29 198 35 102 14 245 39
249 44 14 13 -32 10 -187 -14z"/>
<path d="M4841 4653 c-1 -6 -4 -20 -7 -30 -5 -17 -5 -17 6 0 6 10 9 23 6 30
-3 9 -5 9 -5 0z"/>
<path d="M9270 4639 c0 -5 5 -7 10 -4 6 3 10 8 10 11 0 2 -4 4 -10 4 -5 0 -10
-5 -10 -11z"/>
<path d="M9343 4623 c15 -2 37 -2 50 0 12 2 0 4 -28 4 -27 0 -38 -2 -22 -4z"/>
<path d="M4789 4523 c-19 -42 -35 -80 -37 -84 -2 -3 5 -9 14 -13 12 -5 15 -2
10 10 -4 9 -3 22 2 28 14 18 55 126 50 131 -2 3 -20 -30 -39 -72z"/>
<path d="M4825 4530 c-20 -39 -34 -77 -32 -83 2 -7 21 24 41 67 20 44 34 81
32 84 -3 2 -21 -28 -41 -68z"/>
<path d="M2627 4553 c-4 -3 -7 -11 -7 -17 0 -6 5 -5 12 2 6 6 9 14 7 17 -3 3
-9 2 -12 -2z"/>
<path d="M3651 4468 c6 -12 15 -33 20 -47 5 -17 8 -20 8 -8 1 18 -25 77 -35
77 -2 0 1 -10 7 -22z"/>
<path d="M3657 4373 c-4 -3 -7 -12 -7 -18 0 -7 -21 -57 -46 -111 -25 -55 -45
-101 -45 -104 4 -18 99 4 98 23 -1 7 13 41 30 77 43 90 48 110 29 110 -8 0
-18 -10 -22 -22 -18 -58 -87 -189 -94 -182 -5 5 7 42 27 82 19 40 36 91 37
113 2 42 2 42 -7 32z"/>
<path d="M1320 4363 c-25 -5 -60 -30 -60 -43 0 -6 70 3 110 14 8 3 19 5 24 5
5 1 3 8 -4 16 -12 15 -23 16 -70 8z"/>
<path d="M895 4315 c-12 -17 -313 -66 -790 -128 -99 -12 -100 -13 -103 -41
l-4 -29 62 6 c34 4 67 10 73 14 7 4 21 8 32 9 65 4 203 29 199 35 -3 5 8 8 23
7 15 0 71 5 123 11 203 26 328 31 374 14 44 -17 122 -11 111 8 -4 5 -1 9 4 9
6 0 11 4 11 9 0 6 -12 9 -27 8 -19 -1 -27 2 -25 11 1 8 -2 11 -7 8 -5 -4 -12
-2 -16 4 -3 5 -2 10 3 10 5 0 7 11 4 25 -5 28 -31 34 -47 10z"/>
<path d="M11710 4280 c0 -5 10 -10 23 -10 18 0 19 2 7 10 -19 13 -30 13 -30 0z"/>
<path d="M1116 4255 c20 -15 52 -19 79 -9 27 11 -3 24 -54 24 -42 0 -43 -1
-25 -15z"/>
<path d="M1200 4216 c0 -11 -5 -15 -12 -10 -7 4 -10 4 -6 -1 10 -11 -22 -34
-47 -35 -11 0 -41 7 -66 16 -32 12 -59 15 -92 10 -55 -8 -61 -21 -15 -31 18
-4 51 -15 73 -25 77 -33 99 -34 134 -4 18 14 29 29 26 32 -3 3 3 14 12 24 13
14 14 21 5 30 -9 9 -12 8 -12 -6z"/>
<path d="M7095 4174 l-30 -26 33 22 c17 12 32 23 32 26 0 7 -4 5 -35 -22z"/>
<path d="M1571 4134 c15 -16 30 -39 34 -51 3 -13 11 -23 16 -23 14 0 11 -56
-7 -100 -21 -52 -11 -63 15 -19 41 67 17 165 -50 203 l-34 19 26 -29z"/>
<path d="M6886 4035 c-126 -86 -175 -122 -136 -100 28 16 235 155 260 175 55
43 8 15 -124 -75z"/>
<path d="M11568 4053 c12 -2 30 -2 40 0 9 3 -1 5 -23 4 -22 0 -30 -2 -17 -4z"/>
<path d="M11848 4043 c7 -3 16 -2 19 1 4 3 -2 6 -13 5 -11 0 -14 -3 -6 -6z"/>
<path d="M12285 4030 c-7 -11 18 -24 35 -18 6 2 1 9 -9 15 -13 8 -22 9 -26 3z"/>
<path d="M12350 4000 c8 -5 20 -10 25 -10 6 0 3 5 -5 10 -8 5 -19 10 -25 10
-5 0 -3 -5 5 -10z"/>
<path d="M1745 3958 c-23 -7 -35 -21 -49 -56 -17 -40 -47 -103 -100 -209 -6
-13 -16 -23 -23 -23 -6 0 -20 -3 -30 -7 -17 -6 -17 -5 1 15 17 20 117 233 111
240 -1 1 -16 -3 -34 -9 -32 -11 -32 -11 -102 -165 -15 -34 -32 -65 -38 -69 -6
-3 -9 -11 -6 -16 4 -5 1 -9 -4 -9 -6 0 -11 -4 -11 -9 0 -18 50 -21 87 -6 21 9
48 13 61 10 14 -3 21 -2 18 4 -3 5 9 14 27 21 28 10 30 13 13 19 -15 6 -17 10
-7 16 7 4 29 42 47 84 19 42 39 85 44 96 10 19 31 86 27 84 -1 -1 -16 -5 -32
-11z"/>
<path d="M6511 3786 c-101 -68 -188 -130 -195 -136 -6 -7 78 47 187 120 171
115 207 140 195 140 -2 0 -86 -56 -187 -124z"/>
<path d="M13105 3630 c-4 -6 8 -10 28 -10 51 0 119 -23 277 -96 146 -67 616
-279 700 -316 25 -10 41 -15 35 -9 -11 10 -651 304 -865 396 -36 16 -69 32
-74 37 -14 11 -94 10 -101 -2z"/>
<path d="M6229 3593 c-13 -16 -12 -17 4 -4 9 7 17 15 17 17 0 8 -8 3 -21 -13z"/>
<path d="M6155 3547 c-328 -217 -843 -562 -1021 -683 -249 -170 -390 -265
-494 -334 -58 -38 -157 -105 -220 -149 -63 -44 -189 -129 -280 -190 -236 -158
-230 -154 -257 -179 -13 -12 -29 -20 -34 -17 -5 4 -9 2 -9 -4 0 -6 -21 -23
-47 -38 -27 -15 -95 -60 -153 -99 -112 -76 -170 -109 -170 -97 0 4 -7 -3 -16
-15 -16 -23 -205 -152 -223 -152 -5 0 -11 -4 -13 -9 -1 -5 -73 -55 -158 -111
-85 -56 -194 -129 -243 -161 -48 -32 -91 -59 -95 -59 -5 0 -19 -11 -32 -25
-13 -14 -29 -25 -35 -25 -6 0 -20 -8 -31 -17 -29 -27 -98 -70 -118 -74 -9 -2
-16 -7 -14 -11 3 -8 -65 -58 -77 -58 -4 0 -13 -7 -21 -15 -9 -8 -27 -18 -42
-22 -15 -3 -33 -15 -40 -25 -7 -10 -17 -18 -23 -18 -5 0 -38 -24 -74 -53 -35
-29 -80 -62 -99 -72 -19 -11 -83 -54 -143 -95 -59 -41 -148 -101 -198 -134
-172 -113 -270 -180 -283 -193 -7 -7 -21 -13 -30 -13 -10 0 -25 -9 -34 -20 -9
-10 -36 -32 -60 -47 -24 -15 -45 -30 -48 -33 -3 -3 -35 -24 -73 -45 -37 -22
-67 -43 -67 -47 0 -4 -6 -8 -12 -8 -7 -1 -29 -14 -48 -30 -19 -17 -37 -30 -41
-30 -4 0 -38 -20 -76 -45 -37 -25 -82 -51 -100 -57 -47 -17 -51 -38 -7 -38 25
0 51 10 83 33 84 61 544 370 676 454 72 46 143 93 159 106 38 29 228 158 741
502 231 155 456 307 500 338 44 30 271 184 505 341 499 335 853 574 930 628
30 22 78 54 105 73 28 19 71 49 96 67 211 151 834 573 1389 941 99 66 141 97
129 97 -2 0 -27 -15 -54 -33z"/>
<path d="M13365 3011 l-20 -10 20 0 c11 -1 31 -4 44 -8 17 -4 22 -3 17 5 -10
16 19 15 67 -2 35 -13 65 -5 32 8 -29 11 -140 16 -160 7z"/>
<path d="M13840 3000 c0 -6 23 -7 60 -3 41 4 60 2 60 -5 0 -6 7 -9 15 -6 35
14 10 24 -60 24 -43 0 -75 -4 -75 -10z"/>
<path d="M14000 2990 c0 -5 7 -10 15 -10 8 0 15 5 15 10 0 6 -7 10 -15 10 -8
0 -15 -4 -15 -10z"/>
<path d="M14720 2955 c0 -16 -50 -21 -150 -15 -25 1 -42 -1 -39 -4 4 -4 42 -9
85 -12 44 -2 98 -7 121 -9 44 -4 219 -76 478 -198 83 -38 269 -123 415 -188
146 -64 321 -143 390 -174 69 -31 193 -86 275 -122 83 -36 206 -91 275 -123
385 -177 365 -169 358 -150 -3 11 -89 50 -668 305 -366 161 -969 431 -1165
522 -71 33 -174 79 -228 103 -54 23 -102 51 -108 61 -12 23 -39 25 -39 4z"/>
<path d="M14418 2943 c7 -3 16 -2 19 1 4 3 -2 6 -13 5 -11 0 -14 -3 -6 -6z"/>
<path d="M14458 2933 c7 -3 16 -2 19 1 4 3 -2 6 -13 5 -11 0 -14 -3 -6 -6z"/>
<path d="M8361 2734 c0 -11 3 -14 6 -6 3 7 2 16 -1 19 -3 4 -6 -2 -5 -13z"/>
<path d="M8341 2654 c0 -11 3 -14 6 -6 3 7 2 16 -1 19 -3 4 -6 -2 -5 -13z"/>
<path d="M8310 2538 c0 -3 -14 -58 -31 -122 -16 -65 -28 -123 -26 -129 2 -6
18 46 35 117 18 71 30 132 27 134 -3 3 -5 3 -5 0z"/>
<path d="M18092 2450 c0 -19 2 -27 5 -17 2 9 2 25 0 35 -3 9 -5 1 -5 -18z"/>
<path d="M7580 2314 c-35 -77 -39 -98 -8 -39 28 54 49 105 43 105 -3 0 -18
-30 -35 -66z"/>
<path d="M8923 2290 c0 -41 2 -58 4 -37 2 20 2 54 0 75 -2 20 -4 3 -4 -38z"/>
<path d="M8236 2239 c-8 -42 0 -50 9 -9 4 17 5 34 2 36 -2 3 -7 -10 -11 -27z"/>
<path d="M9601 2184 c0 -11 3 -14 6 -6 3 7 2 16 -1 19 -3 4 -6 -2 -5 -13z"/>
<path d="M7410 1940 c-62 -138 -110 -253 -107 -257 4 -3 7 -1 7 5 0 6 20 53
44 104 75 159 177 390 173 394 -2 2 -54 -109 -117 -246z"/>
<path d="M8217 2165 c-3 -11 -8 -38 -11 -60 -5 -37 -5 -36 9 10 8 28 13 55 11
60 -1 6 -6 1 -9 -10z"/>
<path d="M18083 2035 c0 -44 2 -61 4 -37 2 23 2 59 0 80 -2 20 -4 1 -4 -43z"/>
<path d="M8913 2010 c0 -30 2 -43 4 -27 2 15 2 39 0 55 -2 15 -4 2 -4 -28z"/>
<path d="M6715 2039 c-4 -6 -5 -12 -2 -15 2 -3 7 2 10 11 7 17 1 20 -8 4z"/>
<path d="M8248 1983 c6 -2 18 -2 25 0 6 3 1 5 -13 5 -14 0 -19 -2 -12 -5z"/>
<path d="M8141 1844 c0 -11 3 -14 6 -6 3 7 2 16 -1 19 -3 4 -6 -2 -5 -13z"/>
<path d="M9672 1810 c0 -14 2 -19 5 -12 2 6 2 18 0 25 -3 6 -5 1 -5 -13z"/>
<path d="M6530 1759 c-12 -16 -21 -32 -18 -34 2 -2 13 12 26 31 28 42 21 45
-8 3z"/>
<path d="M18073 1735 c0 -33 2 -45 4 -27 2 18 2 45 0 60 -2 15 -4 0 -4 -33z"/>
<path d="M8115 1744 c-4 -16 -8 -35 -11 -42 -2 -7 0 -11 5 -7 11 6 25 64 17
72 -3 3 -8 -8 -11 -23z"/>
<path d="M9682 1750 c0 -14 2 -19 5 -12 2 6 2 18 0 25 -3 6 -5 1 -5 -13z"/>
<path d="M8898 1688 c-5 -183 -5 -227 2 -223 9 6 14 295 5 295 -3 0 -6 -33 -7
-72z"/>
<path d="M7605 1700 c3 -5 8 -10 11 -10 2 0 4 5 4 10 0 6 -5 10 -11 10 -5 0
-7 -4 -4 -10z"/>
<path d="M16965 1700 c3 -5 11 -10 16 -10 6 0 7 5 4 10 -3 6 -11 10 -16 10 -6
0 -7 -4 -4 -10z"/>
<path d="M17000 1679 c0 -5 8 -13 18 -16 9 -4 28 -15 41 -25 13 -10 27 -16 31
-13 4 3 10 -2 14 -10 3 -8 15 -15 26 -15 12 0 31 -5 42 -11 15 -8 19 -8 13 0
-3 6 -39 28 -78 49 -95 49 -107 53 -107 41z"/>
<path d="M7277 1653 c-4 -3 -7 -11 -7 -17 0 -6 5 -5 12 2 6 6 9 14 7 17 -3 3
-9 2 -12 -2z"/>
<path d="M9702 1635 c0 -16 3 -39 8 -50 8 -18 9 -18 8 5 0 14 -4 36 -8 50 -8
24 -8 24 -8 -5z"/>
<path d="M7643 1643 c15 -2 39 -2 55 0 15 2 2 4 -28 4 -30 0 -43 -2 -27 -4z"/>
<path d="M7928 1633 c12 -2 30 -2 40 0 9 3 -1 5 -23 4 -22 0 -30 -2 -17 -4z"/>
<path d="M7245 1579 c-9 -17 -15 -33 -13 -35 3 -2 12 12 21 31 21 43 13 47 -8
4z"/>
<path d="M18049 1553 c-13 -19 -20 -21 -47 -14 -23 7 -34 6 -43 -5 -8 -10 -22
-13 -40 -9 -19 4 -33 1 -46 -12 -35 -35 -65 -41 -183 -37 -163 6 -190 10 -204
30 -13 17 -14 16 -25 -4 -11 -20 -9 -23 15 -33 16 -5 53 -11 83 -13 94 -6 205
-17 221 -23 8 -4 17 -7 20 -8 3 -1 36 -16 73 -33 76 -35 102 -40 93 -17 -7 20
22 19 48 0 25 -19 69 -19 106 0 17 9 30 11 30 5 0 -5 8 -10 19 -10 29 0 82
-25 74 -35 -5 -4 -2 -5 5 -1 7 4 34 -2 60 -15 26 -13 51 -22 55 -21 5 2 23 -6
41 -18 18 -11 36 -17 40 -13 4 4 4 -1 0 -12 -6 -15 -4 -17 10 -12 19 7 161
-50 319 -129 27 -13 55 -24 62 -24 7 0 15 -5 17 -11 2 -5 10 -11 18 -12 8 -1
15 -7 15 -12 0 -9 -10 -12 -62 -14 -29 -1 -31 -31 -3 -31 11 0 20 -4 20 -9 0
-13 53 -21 67 -9 16 13 49 -6 56 -32 6 -23 -13 -36 -38 -26 -17 6 -19 0 -5
-17 6 -7 19 -23 31 -37 14 -17 22 -21 25 -12 7 14 34 16 34 2 0 -5 -6 -10 -14
-10 -7 0 -16 -9 -19 -21 -4 -16 -3 -18 7 -9 10 7 17 6 26 -5 7 -8 18 -15 24
-15 6 0 18 -5 26 -10 13 -9 13 -11 0 -20 -8 -5 -27 -10 -42 -10 -26 0 -52 -20
-26 -20 7 -1 3 -6 -9 -13 -21 -12 -21 -13 -5 -23 10 -6 39 -12 65 -12 25 -1
58 -9 71 -17 14 -9 37 -15 53 -13 l28 3 3 146 3 147 -83 35 c-46 19 -153 65
-238 101 -85 37 -164 70 -175 75 -23 11 -117 52 -335 146 -310 134 -288 121
-295 174 -4 25 -7 53 -8 61 -2 11 -6 9 -18 -7z m961 -582 c0 -18 -18 -21 -30
-6 -10 13 -9 15 9 15 11 0 21 -4 21 -9z m80 -41 c0 -5 -4 -10 -9 -10 -6 0 -13
5 -16 10 -3 6 1 10 9 10 9 0 16 -4 16 -10z"/>
<path d="M8066 1549 c-3 -8 -43 -171 -91 -364 -47 -192 -92 -372 -100 -400
-11 -40 -167 -666 -190 -762 -3 -13 -1 -23 4 -23 5 0 33 98 61 217 47 198 85
350 110 443 18 65 192 775 196 800 3 14 9 40 14 59 9 34 5 58 -4 30z"/>
<path d="M9720 1524 c0 -8 14 -98 23 -149 2 -11 10 -56 17 -100 7 -44 15 -74
17 -68 4 12 -45 314 -52 322 -3 2 -5 0 -5 -5z"/>
<path d="M7167 1408 c-26 -56 -46 -103 -44 -105 2 -2 25 42 51 98 26 56 45
103 43 105 -2 2 -25 -42 -50 -98z"/>
<path d="M12980 1497 c0 -2 15 -16 33 -33 l32 -29 -29 33 c-28 30 -36 37 -36
29z"/>
<path d="M2614 1454 c-18 -14 -18 -15 4 -4 12 6 22 13 22 15 0 8 -5 6 -26 -11z"/>
<path d="M8891 1395 c-2 -33 -4 -71 -6 -85 -7 -59 -27 -760 -23 -810 3 -40 5
-29 6 40 1 52 6 100 10 107 4 6 21 13 37 16 l30 4 -32 2 -33 1 0 68 c0 37 5
195 11 352 6 157 9 303 6 325 -3 33 -4 29 -6 -20z"/>
<path d="M2425 1339 c-88 -55 -164 -106 -170 -112 -5 -6 1 -4 15 5 14 8 86 52
160 98 121 75 173 110 160 110 -3 0 -77 -45 -165 -101z"/>
<path d="M13140 1337 c0 -2 15 -16 33 -33 l32 -29 -29 33 c-28 30 -36 37 -36
29z"/>
<path d="M6190 1262 c-37 -55 -41 -62 -36 -62 7 0 69 91 64 95 -2 2 -14 -13
-28 -33z"/>
<path d="M7085 1235 c-33 -75 -26 -83 9 -9 15 31 25 59 22 61 -3 3 -17 -21
-31 -52z"/>
<path d="M2214 1204 c-18 -14 -18 -15 4 -4 12 6 22 13 22 15 0 8 -5 6 -26 -11z"/>
<path d="M12422 1188 c13 -18 35 -48 48 -65 13 -18 25 -31 28 -29 4 4 -88 126
-96 126 -2 0 7 -15 20 -32z"/>
<path d="M11550 1180 c6 -11 13 -20 16 -20 2 0 0 9 -6 20 -6 11 -13 20 -16 20
-2 0 0 -9 6 -20z"/>
<path d="M6133 1178 c-21 -27 -64 -100 -56 -95 10 6 75 107 69 107 -2 0 -8 -6
-13 -12z"/>
<path d="M9782 1170 c0 -14 2 -19 5 -12 2 6 2 18 0 25 -3 6 -5 1 -5 -13z"/>
<path d="M2134 1154 c-18 -14 -18 -15 4 -4 12 6 22 13 22 15 0 8 -5 6 -26 -11z"/>
<path d="M6992 1032 c-55 -114 -163 -346 -241 -514 -16 -35 -62 -133 -101
-218 -40 -85 -88 -188 -106 -228 -19 -41 -30 -72 -24 -70 10 3 135 265 245
513 29 66 79 174 110 240 109 228 186 397 182 401 -2 2 -31 -54 -65 -124z"/>
<path d="M9792 1115 c0 -16 4 -43 8 -60 l8 -30 0 30 c0 17 -4 44 -8 60 l-8 30
0 -30z"/>
<path d="M11621 1063 c7 -12 15 -20 18 -17 3 2 -3 12 -13 22 -17 16 -18 16 -5
-5z"/>
<path d="M6012 1003 c-69 -100 -112 -166 -112 -175 0 -6 24 25 53 68 77 114
90 134 84 134 -3 0 -14 -12 -25 -27z"/>
<path d="M18705 1020 c3 -5 10 -10 16 -10 5 0 9 5 9 10 0 6 -7 10 -16 10 -8 0
-12 -4 -9 -10z"/>
<path d="M9811 1004 c0 -11 3 -14 6 -6 3 7 2 16 -1 19 -3 4 -6 -2 -5 -13z"/>
<path d="M12908 1003 c7 -3 16 -2 19 1 4 3 -2 6 -13 5 -11 0 -14 -3 -6 -6z"/>
<path d="M11685 953 c8 -18 18 -33 20 -33 10 0 4 16 -16 40 l-20 25 16 -32z"/>
<path d="M12596 965 c4 -8 11 -15 16 -15 6 0 5 6 -2 15 -7 8 -14 15 -16 15 -2
0 -1 -7 2 -15z"/>
<path d="M10750 961 c0 -6 4 -13 10 -16 6 -3 7 1 4 9 -7 18 -14 21 -14 7z"/>
<path d="M12659 893 c23 -29 45 -53 48 -53 7 0 -54 75 -74 91 -10 8 2 -10 26
-38z"/>
<path d="M1723 899 c-35 -22 -46 -37 -15 -20 22 13 58 40 52 41 -3 0 -20 -10
-37 -21z"/>
<path d="M1820 910 c14 -4 32 -8 40 -9 13 -1 13 0 0 9 -8 5 -26 9 -40 9 l-25
-1 25 -8z"/>
<path d="M11771 805 c34 -60 67 -120 73 -132 6 -13 16 -25 23 -27 13 -5 -120
229 -144 254 -8 8 14 -34 48 -95z"/>
<path d="M1955 870 c27 -12 43 -12 25 0 -8 5 -22 9 -30 9 -10 0 -8 -3 5 -9z"/>
<path d="M1643 849 c-35 -22 -46 -37 -15 -20 22 13 58 40 52 41 -3 0 -20 -10
-37 -21z"/>
<path d="M9842 808 c13 -74 19 -84 12 -18 -3 30 -9 59 -13 63 -5 5 -4 -15 1
-45z"/>
<path d="M6035 840 c-3 -5 1 -10 9 -10 8 0 18 5 21 10 3 6 -1 10 -9 10 -8 0
-18 -4 -21 -10z"/>
<path d="M1563 799 c-35 -22 -46 -37 -15 -20 22 13 58 40 52 41 -3 0 -20 -10
-37 -21z"/>
<path d="M12726 810 c13 -18 140 -185 159 -208 8 -9 68 -86 135 -169 66 -84
123 -153 127 -153 6 0 3 4 -67 91 -25 31 -63 80 -85 109 -136 178 -320 405
-269 330z"/>
<path d="M5785 668 c-62 -91 -227 -335 -422 -621 -14 -20 -24 -40 -21 -42 6
-6 424 604 500 730 49 81 20 47 -57 -67z"/>
<path d="M1475 744 c-51 -34 -69 -52 -29 -29 35 20 82 54 74 55 -3 0 -23 -12
-45 -26z"/>
<path d="M4769 703 l-34 -38 38 34 c20 19 37 36 37 38 0 8 -8 0 -41 -34z"/>
<path d="M9861 698 l-1 -37 -87 -4 -88 -3 92 -2 c91 -2 91 -2 97 -29 4 -16 28
-160 55 -321 27 -161 52 -296 55 -299 11 -11 6 25 -40 289 -25 145 -49 288
-54 318 -5 30 -14 71 -19 90 l-9 35 -1 -37z"/>
<path d="M1384 684 c-18 -14 -18 -15 4 -4 12 6 22 13 22 15 0 8 -5 6 -26 -11z"/>
<path d="M7253 683 c9 -2 23 -2 30 0 6 3 -1 5 -18 5 -16 0 -22 -2 -12 -5z"/>
<path d="M7473 683 c9 -2 23 -2 30 0 6 3 -1 5 -18 5 -16 0 -22 -2 -12 -5z"/>
<path d="M7628 673 c7 -3 16 -2 19 1 4 3 -2 6 -13 5 -11 0 -14 -3 -6 -6z"/>
<path d="M7938 673 c7 -3 16 -2 19 1 4 3 -2 6 -13 5 -11 0 -14 -3 -6 -6z"/>
<path d="M8028 673 c12 -2 32 -2 45 0 12 2 2 4 -23 4 -25 0 -35 -2 -22 -4z"/>
<path d="M8223 673 c15 -2 37 -2 50 0 12 2 0 4 -28 4 -27 0 -38 -2 -22 -4z"/>
<path d="M8327 673 c18 -2 50 -2 70 0 21 2 7 4 -32 4 -38 0 -55 -2 -38 -4z"/>
<path d="M8528 673 c12 -2 30 -2 40 0 9 3 -1 5 -23 4 -22 0 -30 -2 -17 -4z"/>
<path d="M1329 649 l-24 -20 28 17 c15 9 27 18 27 20 0 8 -8 4 -31 -17z"/>
<path d="M8643 663 c9 -2 23 -2 30 0 6 3 -1 5 -18 5 -16 0 -22 -2 -12 -5z"/>
<path d="M8718 663 c7 -3 16 -2 19 1 4 3 -2 6 -13 5 -11 0 -14 -3 -6 -6z"/>
<path d="M8768 663 c6 -2 18 -2 25 0 6 3 1 5 -13 5 -14 0 -19 -2 -12 -5z"/>
<path d="M9143 663 c15 -2 39 -2 55 0 15 2 2 4 -28 4 -30 0 -43 -2 -27 -4z"/>
<path d="M4684 608 c-70 -76 -109 -122 -91 -109 19 15 141 151 135 151 -2 0
-22 -19 -44 -42z"/>
<path d="M11895 600 c9 -16 18 -30 21 -30 2 0 -2 14 -11 30 -9 17 -18 30 -21
30 -2 0 2 -13 11 -30z"/>
<path d="M10893 588 c14 -37 74 -196 142 -381 43 -114 81 -207 85 -207 4 0
-29 98 -75 218 -123 323 -146 382 -152 382 -3 0 -3 -6 0 -12z"/>
<path d="M13900 576 c0 -2 8 -10 18 -17 15 -13 16 -12 3 4 -13 16 -21 21 -21
13z"/>
<path d="M19173 533 c-5 -32 -13 -48 -23 -48 -9 0 -26 -10 -40 -23 -27 -25
-63 -37 -79 -27 -6 3 -11 -1 -11 -9 0 -9 8 -16 19 -16 11 0 23 -9 26 -20 3
-11 11 -20 16 -20 5 0 9 -7 9 -15 0 -8 -7 -15 -15 -15 -8 0 -15 -4 -15 -9 0
-14 -32 -22 -45 -11 -9 8 -14 5 -18 -10 -3 -12 -14 -20 -29 -21 -12 0 -17 -3
-10 -6 17 -7 15 -23 -3 -23 -18 0 -20 -17 -2 -23 10 -4 10 -7 0 -18 -7 -7 -13
-37 -13 -65 0 -29 -5 -65 -10 -80 -8 -21 -8 -29 2 -35 10 -6 8 -12 -7 -23 -18
-14 -6 -15 128 -16 l147 0 0 290 c0 278 -7 347 -27 243z m-86 -229 c-3 -3 -12
-4 -19 -1 -8 3 -5 6 6 6 11 1 17 -2 13 -5z m-47 -62 c0 -5 -8 -16 -17 -25 -16
-13 -20 -13 -31 -1 -11 12 -9 14 13 14 15 0 24 4 20 10 -3 6 -1 10 4 10 6 0
11 -4 11 -8z m-50 -202 c0 -5 -4 -10 -10 -10 -5 0 -10 5 -10 10 0 6 5 10 10
10 6 0 10 -4 10 -10z"/>
<path d="M1139 529 l-24 -20 28 17 c15 9 27 18 27 20 0 8 -8 4 -31 -17z"/>
<path d="M11940 520 c6 -11 13 -20 16 -20 2 0 0 9 -6 20 -6 11 -13 20 -16 20
-2 0 0 -9 6 -20z"/>
<path d="M13946 525 c4 -8 11 -15 16 -15 6 0 5 6 -2 15 -7 8 -14 15 -16 15 -2
0 -1 -7 2 -15z"/>
<path d="M1245 520 c-4 -6 3 -10 14 -10 25 0 27 6 6 13 -8 4 -17 2 -20 -3z"/>
<path d="M13980 496 c0 -2 8 -10 18 -17 15 -13 16 -12 3 4 -13 16 -21 21 -21
13z"/>
<path d="M4485 386 c-82 -92 -90 -112 -11 -28 61 65 99 112 95 116 -2 1 -40
-38 -84 -88z"/>
<path d="M11976 457 c3 -10 9 -15 12 -12 3 3 0 11 -7 18 -10 9 -11 8 -5 -6z"/>
<path d="M14026 447 c3 -10 9 -15 12 -12 3 3 0 11 -7 18 -10 9 -11 8 -5 -6z"/>
<path d="M3913 443 c9 -2 23 -2 30 0 6 3 -1 5 -18 5 -16 0 -22 -2 -12 -5z"/>
<path d="M8844 238 c-9 -198 -5 -302 7 -168 9 98 13 349 7 356 -3 3 -10 -82
-14 -188z"/>
<path d="M14070 406 c0 -2 8 -10 18 -17 15 -13 16 -12 3 4 -13 16 -21 21 -21
13z"/>
<path d="M12045 340 c9 -16 18 -30 21 -30 2 0 -2 14 -11 30 -9 17 -18 30 -21
30 -2 0 2 -13 11 -30z"/>
<path d="M4268 147 c-69 -78 -124 -144 -121 -147 5 -5 62 56 189 203 41 48 72
87 67 86 -4 0 -65 -64 -135 -142z"/>
<path d="M3202 234 l-47 -47 45 38 c62 52 65 55 56 55 -4 0 -28 -21 -54 -46z"/>
<path d="M12090 261 c0 -5 5 -13 10 -16 6 -3 10 -2 10 4 0 5 -4 13 -10 16 -5
3 -10 2 -10 -4z"/>
<path d="M684 244 c-18 -14 -18 -15 4 -4 12 6 22 13 22 15 0 8 -5 6 -26 -11z"/>
<path d="M13195 210 c10 -11 20 -20 23 -20 3 0 -3 9 -13 20 -10 11 -20 20 -23
20 -3 0 3 -9 13 -20z"/>
<path d="M12151 158 c25 -48 91 -158 95 -158 6 0 -9 29 -59 113 -37 63 -61 93
-36 45z"/>
<path d="M13220 176 c0 -2 8 -10 18 -17 15 -13 16 -12 3 4 -13 16 -21 21 -21
13z"/>
<path d="M489 119 l-24 -20 28 17 c15 9 27 18 27 20 0 8 -8 4 -31 -17z"/>
<path d="M603 115 c1 -15 -4 -20 -23 -20 -30 0 -152 -64 -144 -76 3 -5 -2 -6
-10 -3 -9 3 -16 1 -16 -5 0 -17 346 -15 354 2 5 9 7 9 12 0 3 -7 13 -13 22
-13 13 0 12 4 -6 20 -16 15 -27 18 -44 11 -32 -11 -48 -3 -48 24 0 27 -34 55
-66 55 -12 0 -25 6 -28 13 -3 6 -4 3 -3 -8z m-56 -71 c-3 -3 -12 -4 -19 -1 -8
3 -5 6 6 6 11 1 17 -2 13 -5z"/>
<path d="M15490 61 c25 -23 54 -46 65 -52 24 -12 -37 43 -80 72 -17 12 -10 3
15 -20z"/>
<path d="M365 45 c-76 -48 -84 -60 -14 -20 44 25 98 64 89 65 -3 0 -36 -20
-75 -45z"/>
<path d="M13340 26 c0 -2 8 -10 18 -17 15 -13 16 -12 3 4 -13 16 -21 21 -21
13z"/>
<path d="M18777 23 c-14 -13 -6 -23 18 -23 28 0 34 15 9 24 -19 7 -19 7 -27
-1z"/>
</g>
</svg>
