<svg version="1.0" xmlns="http://www.w3.org/2000/svg"
 width="16.000000pt" height="16.000000pt" viewBox="0 0 310.000000 310.000000"
 preserveAspectRatio="xMidYMid meet">

<g transform="translate(0.000000,310.000000) scale(0.100000,-0.100000)"
fill="white" stroke="none">
<path d="M1423 3030 c-523 -43 -977 -346 -1211 -808 -221 -434 -221 -930 0
-1364 372 -732 1271 -1022 2008 -647 822 417 1070 1486 516 2226 -217 290
-539 493 -899 567 -64 13 -300 39 -317 34 -3 0 -46 -4 -97 -8z m276 -339 c78
-136 145 -284 190 -419 23 -67 41 -125 41 -127 0 -3 -141 -5 -312 -5 l-313 1
-17 37 c-10 21 -34 57 -53 80 l-36 41 36 87 c43 104 111 234 171 327 l44 67
99 0 99 0 51 -89z m-599 5 c0 -2 -23 -52 -51 -112 -28 -60 -60 -134 -71 -164
-26 -70 -30 -74 -76 -88 -60 -18 -117 -65 -157 -131 l-38 -61 -123 0 c-68 0
-124 4 -124 9 0 12 61 101 120 176 100 126 252 248 406 325 93 47 114 55 114
46z m1003 -52 c195 -98 382 -270 497 -456 l30 -48 -219 0 -219 0 -12 53 c-22
90 -98 303 -144 402 -25 52 -40 95 -34 95 5 0 51 -21 101 -46z m-1322 -817
l46 -52 -9 -110 c-9 -103 -5 -259 9 -402 l6 -63 -241 0 c-132 0 -243 4 -246 8
-2 4 -13 46 -23 92 -25 117 -25 361 1 480 10 47 20 88 23 93 2 4 91 7 196 7
l192 0 46 -53z m1213 1 c12 -100 19 -323 12 -390 l-7 -67 -48 -16 c-55 -18
-120 -70 -151 -120 l-22 -35 -343 0 -343 0 -6 28 c-30 151 -29 489 3 499 59
20 113 54 156 100 l50 53 346 0 346 0 7 -52z m759 -28 c27 -115 33 -303 13
-438 -9 -62 -21 -124 -26 -137 l-10 -25 -194 0 c-178 0 -195 2 -200 18 -3 10
-22 34 -43 55 l-36 38 -2 237 c-1 130 -5 258 -10 285 l-8 47 249 -2 249 -3 18
-75z m-1874 -872 c5 -13 32 -95 61 -183 28 -88 71 -203 96 -254 24 -52 42 -96
40 -98 -9 -9 -202 98 -271 149 -99 73 -221 199 -288 298 -31 47 -57 91 -57 98
0 9 48 12 205 12 204 0 205 0 214 -22z m910 -17 c7 -15 30 -47 51 -70 l38 -41
-28 -74 c-39 -100 -111 -244 -173 -343 l-52 -83 -102 0 -103 0 -30 53 c-71
119 -172 340 -210 455 -22 67 -40 125 -40 127 0 3 143 5 319 5 l319 0 11 -29z
m805 -28 c-121 -191 -302 -354 -506 -457 -53 -26 -101 -46 -106 -45 -5 2 10
44 35 94 24 49 59 130 78 180 l33 90 64 31 c62 31 128 92 150 140 11 24 12 24
150 24 l139 0 -37 -57z"/>
</g>
</svg>
